<svg xmlns="http://www.w3.org/2000/svg" viewBox="0 0 126 36.23"><defs><style>.cls-1{fill:#595959;}.cls-2{fill:#fff;}.cls-3{fill:#c28e0e;}</style></defs><title>logo-purdue-dk-bkgd</title><g id="Layer_2" data-name="Layer 2"><g id="Layer_1-2" data-name="Layer 1"><g id="PFW-typeA-color-reversed"><path class="cls-1" d="M125.83 35.91V32h-6.56v-1.29h3.19v-2.47h-3.19v-1.32h6.56V23h-11.64v12.91zm-13.1 0V23h-4.33v5.61L104.07 23h-4.52v12.91h4.33v-5.65l4.53 5.65zM98.6 23H94l-1.68 4.3-1.88-4.3h-4.77l4.06 7.33v5.56h4.64v-5.54zm-16.93 8.43h-2.1l1-3.41zM88 35.91L83.47 23h-4.75l-4.45 12.91h3.94l.51-1.68h3.84l.51 1.68zM76.16 23h-4.1l-1.57 6.35L68.85 23h-4.1l-1.56 6.35L61.54 23h-4.92l4.16 12.89h3.79l1.84-5.75 1.86 5.75h3.79zm-24.09 3.9V23h-13v3.9H43v9h5.09v-9zm-18.62.76a.75.75 0 0 1-.66.76h-2.13v-1.5h2.13a.75.75 0 0 1 .66.76m5.41 8.23a4.89 4.89 0 0 1-.61-2.16v-1.06a3.09 3.09 0 0 0-2.38-3.16 3.18 3.18 0 0 0 2.38-3.25c0-1.69-1.6-3.28-4.25-3.28h-8.43v12.91h5.09v-5h2.13a.67.67 0 0 1 .66.66v2.37a3.72 3.72 0 0 0 .64 2zm-19.38-3.08c0 .34-.43.55-1 .55s-1-.21-1-.55V26.1c0-.34.43-.55 1-.55s1 .21 1 .55zm4.75.21v-7.15c0-1.76-2.44-3.19-5.72-3.19s-5.72 1.43-5.72 3.19V33c0 1.76 2.44 3.19 5.72 3.19s5.72-1.39 5.72-3.19m-12.41-6.08V23H.18v12.91h5.09v-4.83h3.19v-2.45H5.27v-1.71z"/><path class="cls-2" d="M126 .24h-2.07L123 7.47l-1-7.23h-2.19l1.92 10.82v8.64H124v-8.63zm-7.08 2.56V.24h-5.4V2.8h1.63v16.9h2.26V2.8zM112.37.24h-2.29V19.7h2.29zm-3.53 16c0-2-1-4.57-2-7.05s-1.51-3.36-1.51-5.94a.79.79 0 0 1 .71-.88c.32 0 .68.29.68.88v3h2.12V3.58c0-2-1.17-3.58-2.75-3.58-2.09 0-3 1.61-3 3.87 0 2 1.26 5.08 2.12 7.05a13.48 13.48 0 0 1 1.44 5.79c0 .63-.29 1-.73 1s-.8-.51-.8-1V14h-2.09v2.36c0 2 1.12 3.58 2.94 3.58 1.17 0 3-.71 3-3.75m-9.41-7.85c0 .56-.15.78-.41.78h-.58V2.58h.58c.27 0 .41.22.41.78zm2.6 11.36a20.54 20.54 0 0 1-.32-3.26v-4.13a2.54 2.54 0 0 0-1.09-2 2.5 2.5 0 0 0 1-2v-5c0-2.48-1.44-3.06-2.58-3.06h-2.9V19.7h2.29v-8.36h.54c.34 0 .51.34.51.78v4.57a16.47 16.47 0 0 0 .29 3zm-7 0v-2.33h-2.5v-6.52h1.65V8.51h-1.65V2.58h2.46V.24H90.4V19.7zM89.38.24h-2.07l-.95 11.6-.88-11.6h-2.24l1.95 19.46h2.21zm-7.2 0h-2.29V19.7h2.29zm-3.6 19.46V.24h-1.87V11L74.76.24h-2.31V19.7h1.9V9.07l2.33 10.63zm-7.38-3.09V.24h-2.07v16.55c0 .44-.22.71-.61.71s-.58-.27-.58-.71V.24h-2.17v16.37c0 2 1.17 3.33 2.75 3.33s2.68-1.36 2.68-3.33"/><path class="cls-3" d="M61.69 19.7v-3.45h-3.77v-4.91h2.48V7.88h-2.48V3.45h3.77V.24H54V19.7zm-9.5-3.58V.24h-3.57V16c0 .34-.34.58-.75.58s-.75-.24-.75-.58V.24h-3.76v15.89c0 2 1.92 3.82 4.5 3.82a4.07 4.07 0 0 0 4.33-3.82m-14.5-.63c0 .56-.24.78-.66.78h-.88V3.7H37c.41 0 .66.22.66.78zm3.92.66V3.79c0-2.48-2.38-3.55-4.26-3.55h-5.09V19.7h5.08c1.87 0 4.26-1.07 4.26-3.55M26.33 7.86c0 .56-.24.78-.66.78h-.56V3.7h.56c.41 0 .66.22.66.78zm4.35 11.84a13.94 13.94 0 0 1-.49-3.26v-4a2.58 2.58 0 0 0-1.7-2.14 2.5 2.5 0 0 0 1.63-2.14V3.79C30.13 1.31 27.86.24 26 .24h-4.78V19.7h3.89v-7.85h.51a.73.73 0 0 1 .8.75v4.09a9.92 9.92 0 0 0 .49 3zm-11.3-3.58V.24h-3.57V16c0 .34-.34.58-.75.58s-.75-.24-.75-.58V.24h-3.75v15.89c0 2 1.92 3.82 4.5 3.82a4.07 4.07 0 0 0 4.33-3.82M5.13 8.1c0 .56-.24.78-.68.78h-.53V3.7h.54c.44 0 .68.22.68.78zm3.77.68v-5C8.9 1.31 6.67.24 4.79.24H0V19.7h3.92v-7.37h.88c1.87 0 4.11-1.07 4.11-3.55"/></g></g></g></svg>